PathFileType	4	(X/Y/Z)	RBDS017\RBDS017runT35.trc
DataRate	CameraRate	NumFrames	NumMarkers	Units	OrigDataRate	OrigDataStartFrame	OrigNumFrames
150.000000	150.000000	6	33	mm	150.000000	1125	4500
Frame#	Time	L.ASIS			L.Heel.Bottom			L.Heel.Lateral			L.Heel.Top			L.Iliac.Crest			L.MT1			L.MT5			L.PSIS			L.Shank.Bottom.Lateral			L.Shank.Bottom.Medial			L.Shank.Top.Lateral			L.Shank.Top.Medial			L.Thigh.Bottom.Lateral			L.Thigh.Bottom.Medial			L.Thigh.Top.Lateral			L.Thigh.Top.Medial			R.ASIS			R.ASY			R.Heel.Bottom			R.Heel.Lateral			R.Heel.Top			R.Iliac.Crest			R.MT1			R.MT5			R.PSIS			R.Shank.Bottom.Lateral			R.Shank.Bottom.Medial			R.Shank.Top.Lateral			R.Shank.Top.Medial			R.Thigh.Bottom.Lateral			R.Thigh.Bottom.Medial			R.Thigh.Top.Lateral			R.Thigh.Top.Medial			
		X1	Y1	Z1	X2	Y2	Z2	X3	Y3	Z3	X4	Y4	Z4	X5	Y5	Z5	X6	Y6	Z6	X7	Y7	Z7	X8	Y8	Z8	X9	Y9	Z9	X10	Y10	Z10	X11	Y11	Z11	X12	Y12	Z12	X13	Y13	Z13	X14	Y14	Z14	X15	Y15	Z15	X16	Y16	Z16	X17	Y17	Z17	X18	Y18	Z18	X19	Y19	Z19	X20	Y20	Z20	X21	Y21	Z21	X22	Y22	Z22	X23	Y23	Z23	X24	Y24	Z24	X25	Y25	Z25	X26	Y26	Z26	X27	Y27	Z27	X28	Y28	Z28	X29	Y29	Z29	X30	Y30	Z30	X31	Y31	Z31	X32	Y32	Z32	X33	Y33	Z33	

1126	7.500000000000001	2297.117039402914	1078.834341392495	897.3852622446723	1546.667777852349	431.3156996295595	977.6387288044783	1562.076597947148	423.6897122413872	934.8744460006264	1591.774637088513	436.6450425360524	971.1657088282507	2258.681327743499	1190.128070705848	869.2185517711736	1628.922002248687	218.977503458317	954.7394267284284	1581.583671927763	268.7365293802625	862.950362475994	2132.138990097251	1166.168415391972	982.3264007811041	1701.547181999279	438.6185690234369	894.3275305849146	1685.196425454898	468.9682129565364	937.9964501754667	1764.109639847534	488.1824568542809	884.1544812698345	1748.198193972684	519.0820216455327	925.3292430835394	2086.507091028624	716.7484904497809	853.3248393378909	2027.733460233509	732.9290073116737	891.9936197359523	2106.719692957485	825.6598275030709	847.014944488148	2053.150287227439	840.3265199461663	887.1278591757271	2284.081599395912	1086.178388661588	1171.830727413687	2576.105616684851	147.991005222071	1140.813148512401	2393.942215554068	72.63412813982329	1081.549970333008	2408.595333978226	84.1079033191152	1129.326256652264	2393.36958087743	117.6848194944191	1097.38447412826	2228.976693168527	1182.381128503774	1214.847455145053	2609.306429579929	138.9371800529613	1092.627937004615	2566.948329160507	82.6183875008056	1186.088372739552	2123.803938620034	1161.240363516945	1084.002673553942	2410.72444779178	238.9209855990757	1164.206112061429	2379.993455069229	235.6813255661344	1122.82407872222	2384.50151391952	319.1476499201381	1174.758977111827	2351.374238823968	310.7779107325023	1133.615562716399	2314.731398998853	704.9466295126192	1197.363745213052	2262.505865364774	680.5308250682803	1152.264520003722	2258.71776603925	798.9250730264998	1205.843760317136	2209.35109969737	775.9680686248432	1163.515700323999	
1127	7.506666666666667	2297.696989354863	1077.31020107539	897.5721346951154	1545.908388983407	450.4089259575301	977.1415625126529	1560.912874166897	441.5807823980333	934.4336935108449	1591.203711387204	453.716097301315	970.7377825039752	2256.897496685277	1188.734033502222	869.6706911009317	1619.442232307658	234.6779592735122	957.0056800534315	1574.131912391061	285.1006194903615	864.6633365233952	2132.013880278293	1163.006160109143	982.7931801652783	1701.386346135551	449.549186058512	893.9822046242095	1686.317056138502	481.2815840174252	937.1047994849316	1766.281727261784	496.0004919569963	883.3770330523431	1751.63344352464	528.256394369576	923.9948770067665	2092.308113382449	712.4052049691377	852.3303272609332	2033.161195783943	727.7256299717084	890.8460421592976	2111.197442288385	821.5090862613582	846.3516228721046	2057.32492776496	835.4827040560378	886.3099453684356	2283.998491922142	1083.250904197325	1172.97394937405	2580.556757682326	147.103898159139	1140.846571386407	2399.673059726841	67.37089903289423	1082.894346066944	2414.321765572559	79.25885273736316	1130.632152421354	2398.121218886052	112.463478232108	1098.693260503803	2228.079353468532	1178.309006654533	1215.630767255844	2613.673981847937	138.7647436600585	1092.418277621209	2573.15282434537	81.52473170453401	1186.468688582016	2123.292777505244	1157.673618216711	1084.235512960012	2413.49304219296	234.9604459920417	1164.93434632022	2382.626031887956	230.9708673211451	1123.602478073013	2385.803968795388	314.8336951097233	1175.267274986107	2352.639084594783	305.6542077811877	1134.213336178939	2311.883008133461	700.8209350499895	1197.319317708544	2259.80039605604	677.1273919256943	1151.67837219499	2256.744985942918	795.3588348806403	1205.763612687465	2207.450835188783	773.0579544671975	1162.968363639673	
1128	7.513333333333334	2298.26917420852	1075.177031409528	897.8647975624973	1547.112015297738	469.2567631482712	976.675904562073	1561.58944278431	459.1788309474161	934.0067026257574	1592.49775490867	470.4890218160613	970.2312457349276	2255.262621638634	1186.701396487715	870.021173052107	1611.540374063785	250.3884809342028	959.4510590328736	1568.19891975122	301.3237812666196	866.5801660750842	2131.937150876788	1159.240055021032	982.9016099786746	1702.671126257825	460.0332682153287	893.6369416629994	1688.928413069754	493.0780703613582	936.1839828016372	1769.712169939558	503.2914538087464	882.6001473995743	1756.372839836865	536.8202968064279	922.6372057700777	2098.273550590666	707.4540083111351	851.2723939969869	2038.799553558599	721.80235627228	889.7266910230941	2115.720555711226	816.7422686678016	845.6780499314323	2061.587233946642	829.9200567299267	885.5575436833358	2283.924346171047	1080.136084899614	1174.079472896338	2582.079738085855	144.4711697320108	1140.702712891592	2401.879726610639	62.5155769765591	1083.928040602151	2416.575736956052	74.66883979031397	1131.639051148886	2399.879575902441	107.6056964627709	1099.664618197816	2227.110674802239	1173.987605739891	1216.406423146565	2614.984335578501	136.3412688445216	1092.063801103643	2575.608223123708	78.99065665547391	1186.719778128044	2122.784840843377	1153.537905698329	1084.158388976407	2414.25031234183	230.7253057034436	1165.503464980281	2383.264758368681	226.2509363459362	1124.207679084287	2385.75569408723	310.4262789819376	1175.682124251985	2352.541258107854	300.7334263265654	1134.691905350357	2309.714911676208	696.6719568673958	1197.202567942405	2257.704708628753	673.517763096107	1151.242112943246	2255.313250536838	791.6715384391279	1205.643669202585	2205.995172432628	769.8476373687082	1162.594092071438	
1129	7.52	2298.819964675243	1072.433212606138	898.2637612040347	1550.27372540101	487.6428982224457	976.3003929016055	1564.109851590167	476.3409498867221	933.6495626209663	1595.645818664314	486.7745987482072	969.7119422505848	2253.836747773614	1183.996030044983	870.2547206648489	1605.254186889967	265.9678073029634	961.8918608660332	1563.830983249819	317.3882408461283	868.5549778980389	2131.899117325949	1154.876311884816	982.660558224729	1705.371769757824	470.0077380193792	893.3186595686489	1693.019771730163	504.2574220555343	935.3002739644648	1774.359858038097	510.0101215063146	881.8547565140586	1762.400008464812	544.6893288835472	921.3302304610829	2104.360453321154	701.9190362012263	850.1549113858327	2044.624348518768	715.1840949553425	888.6525398770973	2120.245983664725	811.3844423460495	844.9946192508778	2065.897240212813	823.6572761605875	884.8758338833338	2283.849843236449	1076.803615620076	1175.138159914537	2580.725067541977	140.1101095216237	1140.315112062622	2400.540076553503	57.96796667816114	1084.622788068596	2415.347438053999	70.26437106121176	1132.302853180594	2398.612437539498	103.0369224939558	1100.238302457675	2226.089261536653	1169.449752720091	1217.157339095462	2613.320132045509	131.6857472067188	1091.507880796877	2574.397476046763	75.05201111091515	1186.815260319306	2122.3055972015	1148.857106300186	1083.800936598138	2413.023447987166	226.1393589220367	1165.866487486109	2381.902434038584	221.4774214429891	1124.623648763493	2384.405459977509	305.8549059968084	1175.993534891958	2351.090759644082	295.9792984634279	1135.073282624432	2308.253227581272	692.473159753778	1197.053026792255	2256.242346139172	669.6663743345832	1150.985844846081	2254.41741215929	787.8203509303459	1205.520071751029	2204.986810124598	766.2917036442634	1162.417689453454	
1130	7.526666666666667	2299.33246010987	1069.078719580833	898.763671248175	1555.340320234548	505.3551890345594	976.0587649803705	1568.440910058217	492.9179436450481	933.407637469924	1600.594400530711	502.3893638721248	969.2432000956164	2252.67883609267	1180.587491333731	870.3652262647785	1600.607702444027	281.2695481904872	964.1750220576832	1561.073475377041	333.2450883314888	870.4606953208578	2131.874909646857	1149.927131427882	982.1107341267419	1709.442687121016	479.4142471304779	893.0479072619486	1698.558664865952	514.7294367329821	934.5088203983435	1780.172844771685	516.1151396725612	881.1619474671191	1769.679858570721	551.7895548576813	920.1333860532845	2110.539551721005	695.8303422394289	848.9804394335983	2050.619997347539	707.906874294467	887.6308571034732	2124.745511274341	805.466108853376	844.2969123915237	2070.228097568004	816.7241426570107	884.2602210518786	2283.763819649483	1073.202029457452	1176.142393774678	2576.565789489984	134.197816373242	1139.606768973014	2395.719972764643	53.67472558511265	1084.968236366241	2410.713608175665	66.03906412768421	1132.592476787937	2394.349445435064	98.7247673565638	1100.361614240058	2225.038317088074	1164.692058069166	1217.869354224851	2608.783521769694	124.9974109290976	1090.688256700542	2569.674789225914	69.91731515296019	1186.731780015617	2121.866483906268	1143.663127424066	1083.215874369303	2409.875217848197	221.1933643835574	1165.962790835508	2378.564421435446	216.6661878042069	1124.827856904996	2381.824905421312	301.0988498643591	1176.176754899264	2348.320100569843	291.397032037557	1135.371075394643	2307.491587270235	688.2006513125754	1196.90790612698	2255.410921533381	665.5492004227987	1150.926307694576	2254.024860312558	783.7664554579878	1205.432842576685	2204.408521450549	762.3573793868194	1162.455197247983	
1131	7.533333333333334	2299.785496950485	1065.114563019015	899.3555758268342	1562.215904545668	522.1954934570877	975.974390480764	1574.516030442179	508.7583232442676	933.3095765419237	1607.253205540042	517.1649440325655	968.8793660656002	2251.841578606901	1176.450864562439	870.3571609336801	1597.619123373602	296.1442222097181	966.1870201848743	1559.971665186419	348.8070071295632	872.1959434243254	2131.824969732372	1144.415092872231	981.3217207571254	1714.829271045365	488.1985513238175	892.8360229056991	1705.495072956861	524.4161077111999	933.8473467274115	1787.094884407919	521.5697115293096	880.5308628118778	1778.161875366906	558.0611698132537	919.0853660922546	2116.796326324458	689.2291362512279	847.7510993451485	2056.778765993552	700.0219336442651	886.6593227643739	2129.206396592381	799.0277549561752	843.5782330902749	2074.567252053908	809.1661631516957	883.6987844469974	2283.651801904245	1069.269291321785	1177.085873103681	2569.697656579203	127.0552558775501	1138.502853475968	2387.571641898926	49.62954534441212	1084.970079561052	2402.833061881975	62.04905817920261	1132.490520299015	2387.181679970146	94.67861222064646	1099.992614000901	2223.985630440676	1159.679980432461	1218.531359162643	2601.497333397414	116.640356206112	1089.549977956199	2561.6565450698	63.94148446793436	1186.452454990402	2121.460707357355	1137.999144201424	1082.472513704006	2404.899602085788	215.9491352013025	1165.722365011848	2373.309585441603	211.8943854329191	1124.790960398025	2378.102465241041	296.1927471376161	1176.191796621315	2344.283486797337	287.0361443571637	1135.585211573635	2307.389129459018	683.8400778517957	1196.793990247744	2255.179423779152	661.1613852039615	1151.061201652979	2254.078525763325	779.4850350329087	1205.417259941574	2204.223053339369	758.0337385440582	1162.70992546684	
